<?xml version="1.0" encoding="utf-8"?>
<svg version="1.1" id="svg4179" height="400" viewbox="0 0 400 400" width="400" xmlns="http://www.w3.org/2000/svg" xmlns:bx="https://boxy-svg.com">
  <defs id="defs4181">
    <mask id="clip-m" viewBox="0 0 100 100">
      <rect x="-50%" y="-50%" width="100%" height="100%" fill="white" alignment-baseline="initial"/>
      <path id="path3322" d="M -14.186 -12.5 C -13.829 -12.456 -13.423 -12.414 -12.919 -12.392 L -11.471 -12.392 C -10.59 -12.392 -9.69 -12.432 -8.756 -12.5 L 0.184 7.298 L 8.002 -12.5 C 8.409 -12.456 8.866 -12.414 9.341 -12.392 L 12.163 -12.392 C 12.594 -12.414 13.029 -12.456 13.504 -12.5 C 13.504 -12.24 13.488 -11.971 13.466 -11.705 C 13.437 -11.467 13.396 -11.247 13.322 -10.981 C 12.892 -10.981 12.533 -10.918 12.201 -10.799 C 11.866 -10.704 11.583 -10.508 11.368 -10.22 C 11.153 -9.959 10.994 -9.574 10.898 -9.099 C 10.829 -8.641 10.829 -8.08 10.898 -7.361 L 12.201 5.777 C 12.29 6.661 12.407 7.414 12.526 7.985 C 12.644 8.562 12.811 8.991 12.996 9.325 C 13.212 9.658 13.437 9.921 13.72 10.085 C 14.01 10.231 14.378 10.315 14.806 10.338 C 14.879 10.602 14.928 10.888 14.951 11.17 C 14.974 11.435 14.987 11.693 14.987 11.931 C 14.705 11.909 14.366 11.881 14.01 11.858 C 13.648 11.858 13.302 11.845 12.924 11.822 L 8.472 11.822 C 7.664 11.845 6.957 11.88 6.336 11.931 C 6.336 11.717 6.313 11.458 6.336 11.17 C 6.382 10.888 6.444 10.612 6.517 10.374 C 7.088 10.323 7.56 10.231 7.893 10.085 C 8.226 9.942 8.475 9.721 8.617 9.433 C 8.758 9.122 8.834 8.742 8.834 8.238 C 8.834 7.713 8.799 7.034 8.726 6.248 L 7.423 -6.021 L 0.002 11.894 C -0.404 12.064 -0.875 12.147 -1.446 12.147 L -9.805 -5.986 L -10.928 5.488 C -11.024 6.437 -11.06 7.255 -11.037 7.877 C -10.991 8.477 -10.874 8.926 -10.711 9.288 C -10.518 9.645 -10.285 9.921 -9.95 10.085 C -9.595 10.231 -9.138 10.323 -8.611 10.374 C -8.545 10.635 -8.489 10.931 -8.467 11.243 C -8.443 11.531 -8.431 11.761 -8.431 11.931 C -9.009 11.88 -9.687 11.845 -10.422 11.822 L -14.077 11.822 C -14.766 11.845 -15.375 11.88 -15.85 11.931 C -15.85 11.761 -15.837 11.531 -15.814 11.243 C -15.791 10.931 -15.744 10.635 -15.669 10.374 C -15.195 10.323 -14.786 10.231 -14.475 10.085 C -14.142 9.942 -13.894 9.682 -13.679 9.325 C -13.464 8.968 -13.284 8.471 -13.135 7.804 C -12.995 7.137 -12.871 6.273 -12.774 5.198 L -11.616 -7.578 C -11.491 -8.868 -11.616 -9.744 -11.977 -10.22 C -12.334 -10.723 -13.004 -10.981 -14.004 -10.981 C -14.078 -11.224 -14.12 -11.452 -14.149 -11.741 C -14.171 -12.024 -14.186 -12.285 -14.186 -12.5 Z" fill="black" bx:origin="0 0"/>
    </mask>
  </defs>
  <g transform="matrix(1, 0, 0, 1, 0, 0)" id="layer1">
    <ellipse style="fill-rule: nonzero;" rx="25" ry="25" alignment-baseline="initial" mask="url(#clip-m)" cy="0" cx="0" cmask="url(#clip-m)"/>
    <g/>
  </g>
</svg>
